# xmcd CD database file
#
# Track frame offsets:
#	150
#	10639
#	28276
#	38275
#	49359
#	61967
#	74830
#	84855
#	95009
#	106411
#	116223
#	130208
#	144115
#	151501
#
# Disc length: 2170 seconds
#
# Revision: 0
# Processed by: cddbd v1.5.2PL0 Copyright (c) Steve Scherf et al.
# Submitted via: CDex 1.70beta2
#
DISCID=b308780e
DTITLE=Beltway Brass - Holiday Drive
DYEAR=2004
DGENRE=Jazz
TTITLE0=Santa Claus Is Coming To Town
TTITLE1=Christmas Time Is Here
TTITLE2=Oh Christmas Tree
TTITLE3=God Rest Ye Merry Gentlemen
TTITLE4=Silent Night
TTITLE5=Jingle Bells
TTITLE6=Away In A Manger
TTITLE7=Little Drummer Boy
TTITLE8=Jolly Old Saint Nicholas
TTITLE9=We Three Kings
TTITLE10=Blue Christmas
TTITLE11=I Heard The Bells On Christmas Day
TTITLE12=The FIrst Noel
TTITLE13=We Wish You A Merry Christmas
EXTD=YEAR: 2004
EXTT0=
EXTT1=
EXTT2=
EXTT3=
EXTT4=
EXTT5=
EXTT6=
EXTT7=
EXTT8=
EXTT9=
EXTT10=
EXTT11=
EXTT12=
EXTT13=
PLAYORDER=
